<svg width="48" height="48" viewBox="0 0 48 48" fill="none" xmlns="http://www.w3.org/2000/svg">
<path d="M8 14.5C7.17157 14.5 6.5 15.1716 6.5 16C6.5 16.8284 7.17157 17.5 8 17.5V14.5ZM40 17.5C40.8284 17.5 41.5 16.8284 41.5 16C41.5 15.1716 40.8284 14.5 40 14.5V17.5ZM10.1836 39.564L10.8646 38.2275L10.1836 39.564ZM8.43597 37.8161L7.09946 38.497H7.09946L8.43597 37.8161ZM39.5645 37.8161L38.2279 37.1351L39.5645 37.8161ZM37.8156 39.564L37.1346 38.2275L37.8156 39.564ZM37.8156 8.43597L38.4966 7.09946L37.8156 8.43597ZM39.5645 10.1841L38.2279 10.8651L39.5645 10.1841ZM10.1836 8.43597L10.8646 9.77248L10.1836 8.43597ZM8.43597 10.1841L9.77248 10.8651L8.43597 10.1841ZM31.0607 25.0607C31.6464 24.4749 31.6464 23.5251 31.0607 22.9393C30.4749 22.3536 29.5251 22.3536 28.9393 22.9393L31.0607 25.0607ZM22 32L20.9393 33.0607C21.5251 33.6464 22.4749 33.6464 23.0607 33.0607L22 32ZM19.0607 26.9393C18.4749 26.3536 17.5251 26.3536 16.9393 26.9393C16.3536 27.5251 16.3536 28.4749 16.9393 29.0607L19.0607 26.9393ZM33.5 4C33.5 3.17157 32.8284 2.5 32 2.5C31.1716 2.5 30.5 3.17157 30.5 4H33.5ZM30.5 8C30.5 8.82843 31.1716 9.5 32 9.5C32.8284 9.5 33.5 8.82843 33.5 8H30.5ZM17.5 4C17.5 3.17157 16.8284 2.5 16 2.5C15.1716 2.5 14.5 3.17157 14.5 4H17.5ZM14.5 8C14.5 8.82843 15.1716 9.5 16 9.5C16.8284 9.5 17.5 8.82843 17.5 8H14.5ZM8 16V17.5H40V16V14.5H8V16ZM14.4004 8V9.5H33.6004V8V6.5H14.4004V8ZM40 14.3999H38.5V33.5999H40H41.5V14.3999H40ZM33.6004 40V38.5H14.4004V40V41.5H33.6004V40ZM8 33.5999H9.5V14.3999H8H6.5V33.5999H8ZM14.4004 40V38.5C13.2556 38.5 12.4869 38.4988 11.8949 38.4505C11.3204 38.4035 11.0456 38.3197 10.8646 38.2275L10.1836 39.564L9.50261 40.9005C10.1772 41.2442 10.8908 41.3784 11.6506 41.4405C12.3931 41.5012 13.305 41.5 14.4004 41.5V40ZM8 33.5999H6.5C6.5 34.6953 6.49883 35.607 6.55948 36.3493C6.62155 37.1091 6.75577 37.8225 7.09946 38.497L8.43597 37.8161L9.77248 37.1351C9.68021 36.954 9.59644 36.6794 9.54952 36.1051C9.50117 35.5132 9.5 34.7448 9.5 33.5999H8ZM10.1836 39.564L10.8646 38.2275C10.3944 37.9879 10.0123 37.6057 9.77248 37.1351L8.43597 37.8161L7.09946 38.497C7.62665 39.5317 8.46749 40.3731 9.50261 40.9005L10.1836 39.564ZM40 33.5999H38.5C38.5 34.7449 38.4989 35.5134 38.4507 36.1053C38.4038 36.6797 38.3201 36.9541 38.2279 37.1351L39.5645 37.8161L40.901 38.497C41.2447 37.8223 41.3788 37.1088 41.4408 36.3491C41.5013 35.6069 41.5 34.6951 41.5 33.5999H40ZM33.6004 40V41.5C34.6958 41.5 35.6073 41.5012 36.3494 41.4405C37.1091 41.3784 37.8221 41.2441 38.4966 40.9005L37.8156 39.564L37.1346 38.2275C36.9534 38.3198 36.6789 38.4035 36.105 38.4505C35.5135 38.4988 34.7452 38.5 33.6004 38.5V40ZM39.5645 37.8161L38.2279 37.1351C37.9887 37.6047 37.6058 37.9874 37.1346 38.2275L37.8156 39.564L38.4966 40.9005C39.5307 40.3736 40.3733 39.5327 40.901 38.497L39.5645 37.8161ZM33.6004 8V9.5C34.7453 9.5 35.5135 9.50117 36.105 9.54951C36.6789 9.59642 36.9534 9.68016 37.1346 9.77248L37.8156 8.43597L38.4966 7.09946C37.8221 6.75582 37.1091 6.62157 36.3494 6.55948C35.6073 6.49883 34.6957 6.5 33.6004 6.5V8ZM40 14.3999H41.5C41.5 13.3047 41.5013 12.393 41.4408 11.6509C41.3788 10.8912 41.2447 10.1778 40.901 9.5031L39.5645 10.1841L38.2279 10.8651C38.3202 11.046 38.4038 11.3204 38.4507 11.8947C38.4989 12.4865 38.5 13.2549 38.5 14.3999H40ZM37.8156 8.43597L37.1346 9.77248C37.6056 10.0125 37.9886 10.3953 38.2279 10.8651L39.5645 10.1841L40.901 9.5031C40.3733 8.46759 39.5308 7.62645 38.4966 7.09946L37.8156 8.43597ZM14.4004 8V6.5C13.305 6.5 12.3931 6.49883 11.6507 6.55948C10.8908 6.62154 10.1772 6.75573 9.50261 7.09946L10.1836 8.43597L10.8646 9.77248C11.0456 9.68024 11.3203 9.59645 11.8949 9.54952C12.4869 9.50117 13.2555 9.5 14.4004 9.5V8ZM8 14.3999H9.5C9.5 13.255 9.50117 12.4867 9.54951 11.8949C9.59643 11.3207 9.68019 11.0462 9.77248 10.8651L8.43597 10.1841L7.09946 9.5031C6.75578 10.1776 6.62156 10.8909 6.55948 11.6506C6.49883 12.3929 6.5 13.3046 6.5 14.3999H8ZM10.1836 8.43597L9.50261 7.09946C8.46733 7.62697 7.62657 8.46859 7.09946 9.5031L8.43597 10.1841L9.77248 10.8651C10.0124 10.3943 10.3946 10.012 10.8646 9.77248L10.1836 8.43597ZM30 24L28.9393 22.9393L20.9393 30.9393L22 32L23.0607 33.0607L31.0607 25.0607L30 24ZM22 32L23.0607 30.9393L19.0607 26.9393L18 28L16.9393 29.0607L20.9393 33.0607L22 32ZM32 4H30.5V8H32H33.5V4H32ZM16 4H14.5V8H16H17.5V4H16Z" fill="#516EFF"/>
</svg>
