<svg width="48" height="48" viewBox="0 0 48 48" fill="none" xmlns="http://www.w3.org/2000/svg">
<path d="M19.0059 8.51444C18.3984 6.9958 16.9276 6 15.292 6H9.78947C7.69661 6 6 7.69668 6 9.78955C6 27.5789 20.4216 41.9999 38.2109 41.9999C40.3038 41.9999 42 40.3035 42 38.2106L41.9998 32.708C41.9998 31.0724 41.0038 29.6017 39.4852 28.9943L34.2143 26.8858C32.8501 26.3401 31.2971 26.586 30.1684 27.5266L28.8062 28.6614C27.2168 29.9859 24.88 29.88 23.4171 28.4171L19.5827 24.583C18.1199 23.1201 18.0144 20.7831 19.3389 19.1938L20.4736 17.8319C21.4142 16.7033 21.66 15.1499 21.1144 13.7857L19.0059 8.51444Z" stroke="#516EFF" stroke-width="3" stroke-linecap="round" stroke-linejoin="round"/>
</svg>
