<svg width="63" height="63" viewBox="0 0 63 63" fill="none" xmlns="http://www.w3.org/2000/svg">
<path d="M26.4 42.2453C26.4 39.2945 28.2286 37.9346 29.638 37.9346C30.4328 37.9346 31.0771 38.578 31.0771 39.3715C31.0771 40.1259 30.495 40.7444 29.7547 40.8037C29.7272 40.8187 29.6805 40.8499 29.6269 40.9091C29.5193 41.0281 29.2782 41.381 29.2782 42.2453V47.2744C29.2782 48.0681 28.634 48.7113 27.8391 48.7113C27.0443 48.7113 26.4 48.0681 26.4 47.2744V42.2453Z" fill="#5672FF"/>
<path d="M37.1933 42.2453C37.1933 39.2945 35.3648 37.9346 33.9553 37.9346C33.1605 37.9346 32.5162 38.578 32.5162 39.3715C32.5162 40.1259 33.0984 40.7444 33.8386 40.8037C33.8661 40.8187 33.9129 40.8499 33.9664 40.9091C34.0741 41.0281 34.3151 41.381 34.3151 42.2453V47.2744C34.3151 48.0681 34.9594 48.7113 35.7542 48.7113C36.549 48.7113 37.1933 48.0681 37.1933 47.2744V42.2453Z" fill="#5672FF"/>
<path d="M33.2358 50.1478C33.2358 50.9415 32.5915 51.5848 31.7967 51.5848C31.0018 51.5848 30.3575 50.9415 30.3575 50.1478C30.3575 49.3543 31.0018 48.711 31.7967 48.711C32.5915 48.711 33.2358 49.3543 33.2358 50.1478Z" fill="#5672FF"/>
<path fill-rule="evenodd" clip-rule="evenodd" d="M39.5267 5.60453H25.4646V10.8856C25.4339 11.2078 25.2946 11.8222 24.3334 12.56C23.2443 13.3961 21.0861 14.3953 16.8718 15.1251C14.9764 15.4534 12.2704 16.2925 10.0068 18.1282C7.68964 20.0076 5.8927 22.8943 5.8927 27.1039V57.4124H15.2469V25.4173C15.2761 25.3419 15.3419 25.2039 15.4169 25.1173C15.4881 25.0347 15.5851 24.9533 15.7245 24.8897C15.8636 24.8263 16.0823 24.7631 16.4188 24.7631C16.5955 24.7631 16.7361 24.8304 16.8515 24.9605C16.977 25.1017 17.0766 25.3287 17.0766 25.6096V46.0238H18.5157C19.4608 46.0238 20.0468 46.2339 20.4221 46.4779C20.7967 46.7216 21.0688 47.0688 21.27 47.5235C21.7059 48.509 21.7229 49.7677 21.7229 50.8695V57.3326H42.0897V50.8695C42.0897 50.7619 42.0893 50.6535 42.089 50.5449C42.0853 49.4737 42.0814 48.3701 42.4358 47.4673C42.6116 47.0198 42.8545 46.6919 43.1918 46.4641C43.5316 46.2344 44.0895 46.0238 45.0365 46.0238H46.4756V32.2489C46.4757 32.228 46.4758 32.2075 46.4758 32.187L46.4756 25.7828C46.4757 25.7621 46.4758 25.7414 46.4758 25.721L46.4756 25.4759C46.4756 25.062 46.7863 24.7631 47.1745 24.7631C47.511 24.7631 47.7297 24.8263 47.8688 24.8897C48.0082 24.9533 48.1052 25.0347 48.1764 25.1173C48.2514 25.2039 48.3172 25.3419 48.3464 25.4173V57.4124H57.7006V27.1039C57.7006 22.8943 55.9036 20.0076 53.5865 18.1282C51.3229 16.2925 48.617 15.4534 46.7215 15.1251C43.3707 14.5448 41.5803 13.7015 40.6347 12.9636C39.8011 12.3134 39.5904 11.7217 39.5267 11.3239V5.60453ZM43.5973 25.7693V25.4759C43.5973 23.5011 45.1706 21.8893 47.1745 21.8893C48.6401 21.8893 49.6914 22.4706 50.3564 23.2407C50.9533 23.932 51.2246 24.7634 51.2246 25.3435V54.5387H54.8224V27.1039C54.8224 23.8314 53.4738 21.7392 51.7718 20.3588C50.7052 19.4939 49.4797 18.8956 48.3232 18.4971C48.2153 18.5228 48.1026 18.5365 47.9866 18.5365H40.6603C39.3692 18.5365 38.7026 18.9813 38.3534 19.3477C38.1634 19.5469 38.0415 19.7507 37.9704 19.9093C37.931 19.9973 37.915 20.0523 37.9096 20.0726C37.8585 20.8199 37.2352 21.4104 36.4738 21.4104C35.6789 21.4104 35.0346 20.767 35.0346 19.9734C35.0346 19.5683 35.1722 19.117 35.3433 18.7354C35.5339 18.3103 35.8308 17.8256 36.2688 17.3662C37.0088 16.59 38.0955 15.946 39.5893 15.7356C39.3265 15.5709 39.0846 15.4015 38.8622 15.228C37.3397 14.0399 36.7971 12.709 36.6594 11.6004L36.6485 11.5124V8.47831H28.3428V10.9976L28.3389 11.0503C28.2599 12.1217 27.7874 13.5336 26.0879 14.8383C25.6443 15.1786 25.1212 15.509 24.5044 15.8251C25.7438 16.0962 26.6697 16.6795 27.3245 17.3662C27.7625 17.8256 28.0594 18.3103 28.25 18.7354C28.4211 19.117 28.5587 19.5683 28.5587 19.9734C28.5587 20.767 27.9144 21.4104 27.1196 21.4104C26.3581 21.4104 25.7348 20.8199 25.6838 20.0726C25.6783 20.0523 25.6623 19.9973 25.6229 19.9093C25.5518 19.7507 25.4299 19.5469 25.2399 19.3477C24.8907 18.9813 24.2241 18.5365 22.933 18.5365H15.6067C15.4907 18.5365 15.378 18.5228 15.2701 18.4971C14.1136 18.8956 12.8881 19.4939 11.8215 20.3588C10.1194 21.7392 8.77092 23.8314 8.77092 27.1039V54.5387H12.3687V25.3435C12.3687 24.7634 12.64 23.932 13.2369 23.2407C13.9019 22.4706 14.9532 21.8893 16.4188 21.8893C18.6016 21.8893 19.9548 23.7557 19.9548 25.6096V25.721H19.9669C19.9669 26.4645 20.175 27.5416 20.8804 28.4048C21.5378 29.2091 22.7924 30.0317 25.3204 30.0317V32.9054C23.0014 32.9054 21.2432 32.3414 19.9548 31.4341V32.187H19.9669C19.9669 32.9305 20.175 34.0076 20.8804 34.8708C21.5377 35.6751 22.7924 36.4977 25.3204 36.4977V39.3715C23.0014 39.3715 21.2431 38.8074 19.9548 37.9001V43.2766C20.7246 43.4207 21.4041 43.6869 21.9932 44.07C22.9266 44.6772 23.5248 45.508 23.9027 46.3622C24.6031 47.9454 24.6018 49.764 24.6011 50.7776V54.4588H39.2115V50.8695C39.2115 50.7744 39.2105 50.6688 39.2095 50.5542C39.2001 49.5565 39.1845 47.8745 39.7562 46.4184C40.0944 45.5571 40.6568 44.7068 41.5787 44.084C42.1585 43.6923 42.832 43.4231 43.5973 43.2778V37.9232C42.316 38.8174 40.571 39.3715 38.2729 39.3715V36.4977C40.8007 36.4977 42.0457 35.6754 42.6952 34.8748C43.3786 34.0324 43.5887 32.983 43.5973 32.2354V31.4571C42.316 32.3514 40.571 32.9054 38.2729 32.9054V30.0317C40.8007 30.0317 42.0457 29.2094 42.6952 28.4088C43.3786 27.5663 43.5887 26.5169 43.5973 25.7693Z" fill="#5672FF"/>
</svg>
