<svg width="63" height="63" viewBox="0 0 63 63" fill="none" xmlns="http://www.w3.org/2000/svg">
<path fill-rule="evenodd" clip-rule="evenodd" d="M23.162 34.7935C23.162 32.9137 24.3634 31.3144 26.0402 30.7218V26.1588H18.8447V6.01129H44.7486V26.1588H37.5531V30.7218C39.2299 31.3144 40.4313 32.9137 40.4313 34.7935V34.966C40.8907 35.0039 41.3908 35.0849 41.8865 35.2494C42.6822 35.5133 43.4923 36.0019 44.0859 36.8697C44.6719 37.7261 44.9541 38.8162 44.9541 40.1212C44.9541 40.6407 45.1919 41.0497 45.7225 41.3908C46.2942 41.7582 47.1498 41.989 48.0894 41.989C49.029 41.989 49.8845 41.7582 50.4563 41.3906C50.9869 41.0497 51.2246 40.6406 51.2246 40.1212V24.5112C49.1441 23.8919 47.6268 21.9645 47.6268 19.6828V13.9264C47.6268 11.1446 49.8819 8.88951 52.6637 8.88951C55.4455 8.88951 57.7006 11.1446 57.7006 13.9264V19.6828C57.7006 21.9645 56.1835 23.8919 54.1028 24.5112V40.1213C54.1028 41.8064 53.1969 43.0508 52.0122 43.8121C50.8686 44.547 49.437 44.8672 48.0894 44.8672C46.7418 44.8672 45.3102 44.547 44.1665 43.8121C42.9817 43.0508 42.0759 41.8064 42.0759 40.1212C42.0759 39.2217 41.8826 38.7464 41.7105 38.4949C41.546 38.2545 41.3153 38.0923 40.9803 37.9812C40.8128 37.9257 40.6276 37.886 40.4273 37.8593C40.329 40.1567 38.4355 41.989 36.114 41.989H27.4793C25.0949 41.989 23.162 40.0561 23.162 37.6717H22.4424C21.0632 37.6717 19.9909 37.8576 19.2832 38.3294C18.6983 38.7194 18.1251 39.4667 18.1251 41.2695C18.1251 42.684 17.6449 43.8748 16.8042 44.7155C15.977 45.5427 14.8834 45.9466 13.8078 45.9466C12.7324 45.9466 11.6387 45.5427 10.8115 44.7155C9.97072 43.8748 9.49049 42.684 9.49047 41.2695V30.2676C7.40989 29.6484 5.8927 27.721 5.8927 25.4393V19.6828C5.8927 16.901 8.14778 14.6459 10.9296 14.6459C13.7114 14.6459 15.9665 16.901 15.9665 19.6828V25.4393C15.9665 27.721 14.4492 29.6484 12.3687 30.2676V41.2695C12.3687 42.0136 12.608 42.4418 12.8466 42.6804C13.0987 42.9325 13.4443 43.0683 13.8078 43.0683C14.1715 43.0683 14.5168 42.9325 14.769 42.6804C15.0076 42.4418 15.2469 42.0136 15.2469 41.2695C15.2469 38.7549 16.113 36.9838 17.6866 35.9347C19.1375 34.9673 20.9435 34.7935 22.4424 34.7935H23.162ZM32.7803 10.6266L29.2683 15.057H21.7229V8.88951H41.8704V23.2806H21.7229V17.9352H30.6596L32.3627 15.7869L35.5429 21.4895L39.5533 16.7017H41.8704V13.8235H38.2096L36.0206 16.4368L32.7803 10.6266ZM13.0882 25.4393C13.0882 26.6314 12.1217 27.5979 10.9296 27.5979C9.73738 27.5979 8.77092 26.6314 8.77092 25.4393H13.0882ZM10.9296 17.5242C12.1217 17.5242 13.0882 18.4907 13.0882 19.6828V22.561H8.77092V19.6828C8.77092 18.4907 9.73738 17.5242 10.9296 17.5242ZM34.6749 37.6717C35.4697 37.6717 36.114 37.0274 36.114 36.2326C36.114 35.4378 35.4697 34.7935 34.6749 34.7935C33.8801 34.7935 33.2358 35.4378 33.2358 36.2326C33.2358 37.0274 33.8801 37.6717 34.6749 37.6717ZM30.3575 36.2326C30.3575 37.0274 29.7133 37.6717 28.9184 37.6717C28.1236 37.6717 27.4793 37.0274 27.4793 36.2326C27.4793 35.4378 28.1236 34.7935 28.9184 34.7935C29.7133 34.7935 30.3575 35.4378 30.3575 36.2326ZM52.6637 11.7677C53.8559 11.7677 54.8224 12.7342 54.8224 13.9264V19.6828C54.8224 20.875 53.8559 21.8415 52.6637 21.8415C51.4716 21.8415 50.5051 20.875 50.5051 19.6828V13.9264C50.5051 12.7342 51.4716 11.7677 52.6637 11.7677ZM28.9184 30.4761H34.6749V26.1588H28.9184V30.4761Z" fill="#5672FF"/>
<path d="M36.1139 43.4278C36.6184 43.4278 37.1028 43.3412 37.553 43.1822V49.1843H51.9441V52.0625H11.649V49.1843H26.0401V43.1822C26.4903 43.3412 26.9747 43.4278 27.4792 43.4278H28.9184V49.1843H34.6748V43.4278H36.1139Z" fill="#5672FF"/>
<path d="M18.1251 57.8192C19.3173 57.8192 20.2838 56.8527 20.2838 55.6606C20.2838 54.4684 19.3173 53.5019 18.1251 53.5019C16.9329 53.5019 15.9664 54.4684 15.9664 55.6606C15.9664 56.8527 16.9329 57.8192 18.1251 57.8192Z" fill="#5672FF"/>
<path d="M45.4682 57.8192C46.6604 57.8192 47.6269 56.8527 47.6269 55.6606C47.6269 54.4684 46.6604 53.5019 45.4682 53.5019C44.2761 53.5019 43.3096 54.4684 43.3096 55.6606C43.3096 56.8527 44.2761 57.8192 45.4682 57.8192Z" fill="#5672FF"/>
</svg>
