<svg width="63" height="63" viewBox="0 0 63 63" fill="none" xmlns="http://www.w3.org/2000/svg">
<path fill-rule="evenodd" clip-rule="evenodd" d="M38.2727 12.2839C38.2727 15.8605 35.3732 18.7599 31.7967 18.7599C28.2201 18.7599 25.3207 15.8605 25.3207 12.2839C25.3207 8.70731 28.2201 5.80791 31.7967 5.80791C35.3732 5.80791 38.2727 8.70731 38.2727 12.2839ZM35.6823 12.2839C35.6823 14.4299 33.9427 16.1695 31.7967 16.1695C29.6507 16.1695 27.9111 14.4299 27.9111 12.2839C27.9111 10.1379 29.6507 8.3983 31.7967 8.3983C33.9427 8.3983 35.6823 10.1379 35.6823 12.2839Z" fill="#5672FF"/>
<path d="M22.7303 53.7302V44.6638H25.3207V53.7302C25.3207 54.4456 25.9006 55.0254 26.6159 55.0254H26.7282C27.3981 55.0254 27.9575 54.5146 28.0181 53.8474L28.853 44.6638H31.4542L30.5979 54.082C30.5912 54.1561 30.5824 54.2296 30.5716 54.3023C30.548 54.4616 30.5149 54.6176 30.4728 54.7696C30.0151 56.424 28.5006 57.6158 26.7282 57.6158H26.6159C24.4699 57.6158 22.7303 55.8762 22.7303 53.7302Z" fill="#5672FF"/>
<path d="M35.5748 53.8474L34.7399 44.6638H32.1388L32.995 54.082C33.0018 54.1561 33.0106 54.2296 33.0213 54.3023C33.0449 54.4616 33.0781 54.6176 33.1202 54.7696C33.5779 56.424 35.0924 57.6158 36.8647 57.6158H36.9771C39.123 57.6158 40.8627 55.8762 40.8627 53.7302V44.6638H38.2723V53.7302C38.2723 54.4456 37.6923 55.0254 36.9771 55.0254H36.8647C36.1948 55.0254 35.6354 54.5146 35.5748 53.8474Z" fill="#5672FF"/>
<path fill-rule="evenodd" clip-rule="evenodd" d="M14.959 20.0551C14.2437 20.0551 13.6638 20.6349 13.6638 21.3503V40.7782C13.6638 41.4936 14.2437 42.0734 14.959 42.0734H48.6342C49.3495 42.0734 49.9294 41.4936 49.9294 40.7782V21.3503C49.9294 20.6349 49.3495 20.0551 48.6342 20.0551H14.959ZM16.2542 22.6455V39.483H25.9682C25.9682 38.7608 26.3038 38.1324 26.6515 37.6705C27.0155 37.1874 27.496 36.748 28.0138 36.3766C28.7207 35.8698 29.5929 35.4226 30.5014 35.1672V32.3594H29.4652C28.6846 32.3594 27.5917 32.8312 26.5424 33.4671C26.0508 33.765 25.6233 34.0648 25.3185 34.2907C25.1667 34.403 25.0471 34.4959 24.967 34.5592C24.927 34.5908 24.8971 34.615 24.8779 34.6306L24.8577 34.6472L24.8542 34.6499C24.8542 34.6499 24.8546 34.6496 24.0254 33.6546C23.1962 32.6597 23.1966 32.6593 23.1966 32.6593L23.1983 32.658L23.2014 32.6554L23.2111 32.6474L23.2439 32.6206C23.2715 32.5982 23.3104 32.5667 23.3601 32.5274C23.459 32.4492 23.6004 32.3396 23.7766 32.2091C24.1275 31.9493 24.6227 31.6015 25.1998 31.2518C26.2875 30.5925 27.9145 29.7691 29.4652 29.7691H30.5014V27.1787H29.8538C29.1167 27.1787 28.1582 27.4367 27.3012 27.7483C26.8904 27.8977 26.5342 28.0476 26.2818 28.1599C26.1559 28.2157 26.0569 28.2618 25.991 28.2932C25.9581 28.3087 25.9335 28.3206 25.9181 28.3281L25.9018 28.3362L25.8996 28.3372C25.8996 28.3372 25.8998 28.3371 25.3206 27.1787C24.7414 26.0202 24.7418 26.02 24.7418 26.02L24.746 26.0179L24.7545 26.0138L24.7823 26C24.8058 25.9886 24.8387 25.9727 24.8804 25.9529C24.9638 25.9134 25.0823 25.8582 25.2297 25.7927C25.5236 25.6621 25.9365 25.4882 26.4161 25.3138C27.3399 24.9779 28.6481 24.5883 29.8538 24.5883H30.5014V22.6455H16.2542ZM33.0918 32.3594H34.5165C35.4865 32.3594 36.4834 32.8339 37.3181 33.4197C37.7202 33.7018 38.0504 33.9857 38.2788 34.1982C38.3924 34.3038 38.479 34.3902 38.535 34.4476C38.5628 34.4762 38.583 34.4974 38.5948 34.5101L38.606 34.522C38.606 34.522 38.6051 34.5211 39.5678 33.6546C40.5305 32.7882 40.53 32.7876 40.53 32.7876L40.528 32.7856L40.5248 32.7819L40.5156 32.7718L40.487 32.741C40.4634 32.7158 40.4308 32.6813 40.3897 32.6392C40.3075 32.5549 40.1906 32.4388 40.0431 32.3016C39.7495 32.0284 39.3269 31.6647 38.8061 31.2992C37.7952 30.5898 36.2664 29.7691 34.5165 29.7691H33.0918V27.1787H34.0632C34.9624 27.1787 35.8367 27.4391 36.5152 27.7247C36.8482 27.865 37.1188 28.0047 37.3023 28.1072C37.3938 28.1583 37.4627 28.1995 37.5058 28.2261C37.5274 28.2393 37.5425 28.2489 37.5508 28.2542L37.5546 28.2566C37.5546 28.2566 37.5541 28.2564 38.2726 27.1787C38.991 26.1009 38.9904 26.1005 38.9904 26.1005L38.9884 26.0992L38.9851 26.097L38.9761 26.0912L38.9497 26.0741C38.9283 26.0604 38.8994 26.0421 38.8634 26.02C38.7916 25.9757 38.6909 25.9157 38.5648 25.8454C38.3134 25.705 37.9564 25.5209 37.5205 25.3374C36.661 24.9754 35.4305 24.5883 34.0632 24.5883H33.0918V22.6455H47.339V39.483H37.625C37.625 38.755 37.2784 38.1169 36.9309 37.6536C36.5633 37.1636 36.0777 36.7121 35.5536 36.3309C34.863 35.8286 33.997 35.3717 33.0918 35.13V32.3594ZM35.0254 39.483C35.0083 39.4403 34.9642 39.3489 34.8586 39.2078C34.6796 38.9692 34.3962 38.6922 34.0299 38.4258C33.2832 37.8828 32.436 37.5554 31.838 37.5408C31.1331 37.6003 30.2491 37.9614 29.5234 38.4818C29.1618 38.7411 28.8896 39.0047 28.7207 39.2289C28.6228 39.3591 28.5824 39.4434 28.5668 39.483H35.0254Z" fill="#5672FF"/>
</svg>
