<svg width="63" height="63" viewBox="0 0 63 63" fill="none" xmlns="http://www.w3.org/2000/svg">
<path d="M30.5199 20.855C32.1247 20.0145 32.644 19.0977 32.644 18.4607C32.644 17.9044 32.2598 17.1391 31.0511 16.3724L32.5537 14.0032C34.149 15.0151 35.4494 16.5303 35.4494 18.4607C35.4494 20.6644 33.7707 22.3193 31.8217 23.3402C29.8062 24.3959 27.119 25.0067 24.2278 25.0067C21.3365 25.0067 18.6493 24.3959 16.6338 23.3402C14.6849 22.3193 13.0061 20.6644 13.0061 18.4607C13.0061 16.5303 14.3066 15.0151 15.9019 14.0032L17.4044 16.3724C16.1957 17.1391 15.8115 17.9044 15.8115 18.4607C15.8115 19.0977 16.3308 20.0145 17.9356 20.855C19.4738 21.6609 21.6962 22.2013 24.2278 22.2013C26.7594 22.2013 28.9817 21.6609 30.5199 20.855Z" fill="#5672FF"/>
<path fill-rule="evenodd" clip-rule="evenodd" d="M29.832 32.7818C37.161 31.0538 42.4628 26.028 42.4628 20.0972C42.4628 12.7377 34.2986 6.77153 24.2276 6.77153C14.1566 6.77153 5.9924 12.7377 5.9924 20.0972C5.9924 24.2714 8.61877 27.9974 12.7299 30.4408C6.45375 34.1743 3.59586 40.9847 6.34545 45.747C9.1248 50.5611 16.5813 51.4594 22.9999 47.7536C29.2191 44.1629 32.1821 37.5673 29.832 32.7818ZM35.4666 27.2548C38.2392 25.2286 39.6574 22.6643 39.6574 20.0972C39.6574 17.5302 38.2392 14.9659 35.4666 12.9397C32.696 10.915 28.7315 9.57694 24.2276 9.57694C19.7236 9.57694 15.7592 10.915 12.9885 12.9397C10.2159 14.9659 8.79781 17.5302 8.79781 20.0972C8.79781 22.6643 10.2159 25.2286 12.9885 27.2548C15.7592 29.2795 19.7236 30.6176 24.2276 30.6176C28.7315 30.6176 32.696 29.2795 35.4666 27.2548ZM14.3377 32.7502C14.8586 32.4493 15.3844 32.1862 15.9104 31.9594C17.4329 32.5306 19.0795 32.9498 20.8131 33.1897L20.6139 34.9373C21.5195 35.0404 21.9886 35.3876 22.191 35.738C22.4203 36.1352 22.4731 36.8466 21.9215 37.8595C21.3835 38.8475 20.362 39.9091 18.9436 40.728C17.5253 41.5469 16.0953 41.9008 14.9704 41.8727C13.8175 41.8438 13.2278 41.4425 12.9985 41.0451C12.7962 40.6947 12.7302 40.115 13.0936 39.2791L10.5209 38.1605C9.93381 39.5107 9.77996 41.0813 10.569 42.4478C11.4719 44.0119 13.2082 44.635 14.9006 44.6772C16.621 44.7201 18.5555 44.1916 20.3463 43.1575C22.1373 42.1235 23.5623 40.7126 24.3854 39.2011C25.1949 37.7144 25.5234 35.8992 24.6205 34.3353C24.4181 33.9848 24.1732 33.6812 23.896 33.4209C24.0062 33.4223 24.1168 33.423 24.2276 33.423C25.1243 33.423 26.0061 33.3757 26.8682 33.2842C26.9742 33.4282 27.0714 33.5767 27.1598 33.7299C28.009 35.2008 28.0956 37.1731 27.164 39.3539C26.2321 41.5357 24.3317 43.7454 21.5972 45.3241C18.8627 46.9028 15.9989 47.4437 13.6435 47.16C11.2891 46.8763 9.62418 45.8152 8.77501 44.3443C7.92582 42.8736 7.83932 40.9011 8.77086 38.7203C9.7028 36.5385 11.6032 34.329 14.3377 32.7502Z" fill="#5672FF"/>
<path d="M48.9101 46.5651C48.7782 47.057 48.2685 47.6328 47.1014 47.9769C45.9616 48.313 44.4112 48.3417 42.7496 47.8964C41.0879 47.4511 39.7595 46.6512 38.9405 45.7901C38.102 44.9086 37.9484 44.1551 38.0801 43.6633C38.1962 43.2298 38.5947 42.7407 39.4922 42.3872L38.464 39.7769C37.0446 40.3361 35.7902 41.3703 35.3703 42.9371C34.8898 44.7302 35.6974 46.4513 36.9078 47.7237C38.1377 49.0166 39.9462 50.0497 42.0235 50.6063C44.1006 51.1628 46.1835 51.1724 47.895 50.6677C49.5795 50.171 51.1394 49.0843 51.6199 47.2912C52.0397 45.7244 51.4703 44.2015 50.5207 43.0076L48.3252 44.754C48.9257 45.5088 49.0262 46.1316 48.9101 46.5651Z" fill="#5672FF"/>
<path fill-rule="evenodd" clip-rule="evenodd" d="M56.834 49.4938C55.3313 55.1021 48.0511 58.0243 40.5732 56.0206C33.0954 54.017 28.2517 47.8462 29.7544 42.2378C31.2573 36.6295 38.5375 33.7073 46.0152 35.711C53.493 37.7146 58.3367 43.8854 56.834 49.4938ZM54.1242 48.7677C53.6527 50.5276 52.2254 52.0745 49.8993 53.0082C47.5722 53.9422 44.5087 54.1707 41.2994 53.3107C38.0902 52.4509 35.5513 50.7213 34.003 48.7489C32.4552 46.7771 31.9927 44.7239 32.4643 42.964C32.9359 41.204 34.363 39.6571 36.6893 38.7234C39.0164 37.7894 42.0799 37.5609 45.2891 38.4209C48.4984 39.2807 51.0373 41.0103 52.5856 42.9829C54.1332 44.9545 54.5958 47.0077 54.1242 48.7677Z" fill="#5672FF"/>
<path fill-rule="evenodd" clip-rule="evenodd" d="M47.8427 33.0925C51.2022 33.9927 54.4727 32.6799 55.1479 30.1602C55.823 27.6406 53.647 24.8683 50.2875 23.9682C46.928 23.0681 43.6574 24.3809 42.9823 26.9004C42.3072 29.4201 44.4832 32.1923 47.8427 33.0925ZM51.4569 30.3052C52.1625 30.022 52.3803 29.6497 52.4381 29.4341C52.4959 29.2186 52.4934 28.7872 52.0239 28.1891C51.5538 27.5903 50.7115 26.9863 49.5614 26.6781C48.4114 26.3699 47.3798 26.4719 46.6733 26.7554C45.9677 27.0386 45.7499 27.4109 45.6921 27.6266C45.6343 27.8422 45.6368 28.2735 46.1063 28.8715C46.5763 29.4705 47.4187 30.0745 48.5687 30.3827C49.7188 30.6908 50.7504 30.5889 51.4569 30.3052Z" fill="#5672FF"/>
</svg>
