<svg width="63" height="63" viewBox="0 0 63 63" fill="none" xmlns="http://www.w3.org/2000/svg">
<path d="M31.1187 56.742C47.0601 56.742 59.9831 44.5369 59.9831 29.4812C59.9831 14.4254 47.0601 2.22034 31.1187 2.22034C15.1773 2.22034 2.25427 14.4254 2.25427 29.4812C2.25427 44.5369 15.1773 56.742 31.1187 56.742Z" stroke="#5672FF" stroke-width="2.06174"/>
<path d="M31.119 47.1205C41.434 47.1205 49.796 39.2231 49.796 29.4811C49.796 19.7392 41.434 11.8418 31.119 11.8418C20.804 11.8418 12.442 19.7392 12.442 29.4811C12.442 39.2231 20.804 47.1205 31.119 47.1205Z" stroke="#5672FF" stroke-width="2.06174"/>
<path d="M20.9319 32.6883C22.0639 28.4121 24.3278 26.274 27.7236 26.274H34.5152C37.911 26.274 40.1749 28.4121 41.3068 32.6883L51.4943 55.1384H10.7445L20.9319 32.6883Z" fill="white" stroke="#5672FF" stroke-width="2.06174"/>
<mask id="path-4-inside-1_1_64" fill="white">
<path d="M12.4427 23.0668H9.72604C9.35095 23.0668 9.04688 23.354 9.04688 23.7083V24.3497C9.04688 24.704 9.35095 24.9911 9.72604 24.9911H12.4427C12.8178 24.9911 13.1219 24.704 13.1219 24.3497V23.7083C13.1219 23.354 12.8178 23.0668 12.4427 23.0668Z"/>
</mask>
<path d="M12.4427 23.0668H9.72604C9.35095 23.0668 9.04688 23.354 9.04688 23.7083V24.3497C9.04688 24.704 9.35095 24.9911 9.72604 24.9911H12.4427C12.8178 24.9911 13.1219 24.704 13.1219 24.3497V23.7083C13.1219 23.354 12.8178 23.0668 12.4427 23.0668Z" fill="#5672FF"/>
<path d="M9.72604 23.0668V25.1286H12.4427V23.0668V21.0051H9.72604V23.0668ZM12.4427 23.0668V25.1286C11.7917 25.1286 11.0601 24.6021 11.0601 23.7083H13.1219H15.1836C15.1836 22.1059 13.8438 21.0051 12.4427 21.0051V23.0668ZM13.1219 23.7083H11.0601V24.3497H13.1219H15.1836V23.7083H13.1219ZM13.1219 24.3497H11.0601C11.0601 23.4559 11.7917 22.9294 12.4427 22.9294V24.9911V27.0529C13.8438 27.0529 15.1836 25.9521 15.1836 24.3497H13.1219ZM12.4427 24.9911V22.9294H9.72604V24.9911V27.0529H12.4427V24.9911ZM9.72604 24.9911V22.9294C10.377 22.9294 11.1086 23.4559 11.1086 24.3497H9.04688H6.98513C6.98513 25.9521 8.32489 27.0529 9.72604 27.0529V24.9911ZM9.04688 24.3497H11.1086V23.7083H9.04688H6.98513V24.3497H9.04688ZM9.04688 23.7083H11.1086C11.1086 24.6021 10.377 25.1286 9.72604 25.1286V23.0668V21.0051C8.32489 21.0051 6.98513 22.1059 6.98513 23.7083H9.04688Z" fill="#5672FF" mask="url(#path-4-inside-1_1_64)"/>
<mask id="path-6-inside-2_1_64" fill="white">
<path d="M12.4427 29.4812H9.72604C9.35095 29.4812 9.04688 29.7683 9.04688 30.1226V30.764C9.04688 31.1183 9.35095 31.4055 9.72604 31.4055H12.4427C12.8178 31.4055 13.1219 31.1183 13.1219 30.764V30.1226C13.1219 29.7683 12.8178 29.4812 12.4427 29.4812Z"/>
</mask>
<path d="M12.4427 29.4812H9.72604C9.35095 29.4812 9.04688 29.7683 9.04688 30.1226V30.764C9.04688 31.1183 9.35095 31.4055 9.72604 31.4055H12.4427C12.8178 31.4055 13.1219 31.1183 13.1219 30.764V30.1226C13.1219 29.7683 12.8178 29.4812 12.4427 29.4812Z" fill="#5672FF"/>
<path d="M9.72604 29.4812V31.5429H12.4427V29.4812V27.4194H9.72604V29.4812ZM12.4427 29.4812V31.5429C11.7917 31.5429 11.0601 31.0165 11.0601 30.1226H13.1219H15.1836C15.1836 28.5202 13.8438 27.4194 12.4427 27.4194V29.4812ZM13.1219 30.1226H11.0601V30.764H13.1219H15.1836V30.1226H13.1219ZM13.1219 30.764H11.0601C11.0601 29.8702 11.7917 29.3437 12.4427 29.3437V31.4055V33.4672C13.8438 33.4672 15.1836 32.3664 15.1836 30.764H13.1219ZM12.4427 31.4055V29.3437H9.72604V31.4055V33.4672H12.4427V31.4055ZM9.72604 31.4055V29.3437C10.377 29.3437 11.1086 29.8702 11.1086 30.764H9.04688H6.98513C6.98513 32.3664 8.32489 33.4672 9.72604 33.4672V31.4055ZM9.04688 30.764H11.1086V30.1226H9.04688H6.98513V30.764H9.04688ZM9.04688 30.1226H11.1086C11.1086 31.0165 10.377 31.5429 9.72604 31.5429V29.4812V27.4194C8.32489 27.4194 6.98513 28.5202 6.98513 30.1226H9.04688Z" fill="#5672FF" mask="url(#path-6-inside-2_1_64)"/>
<path d="M53.1923 24.0981C53.6167 24.0983 53.8592 24.4089 53.8593 24.6704C53.8593 24.9319 53.6168 25.2434 53.1923 25.2436C52.7676 25.2436 52.5253 24.9319 52.5253 24.6704C52.5253 24.4088 52.7676 24.0981 53.1923 24.0981Z" fill="#5672FF" stroke="#5672FF" stroke-width="2.06174"/>
<path d="M53.191 29.8709C53.9908 29.8709 54.5377 30.469 54.5377 31.0848C54.5377 31.7006 53.9908 32.2987 53.191 32.2987C52.3914 32.2986 51.8454 31.7006 51.8453 31.0848C51.8453 30.469 52.3913 29.871 53.191 29.8709Z" fill="#5672FF" stroke="#5672FF" stroke-width="2.06174"/>
<path d="M45.4771 53.5348H16.9522C15.4519 53.5348 14.2356 54.6836 14.2356 56.1006V57.3834C14.2356 58.8004 15.4519 59.9492 16.9522 59.9492H45.4771C46.9774 59.9492 48.1937 58.8004 48.1937 57.3834V56.1006C48.1937 54.6836 46.9774 53.5348 45.4771 53.5348Z" fill="white" stroke="#5672FF" stroke-width="2.06174"/>
</svg>
