<svg width="63" height="63" viewBox="0 0 63 63" fill="none" xmlns="http://www.w3.org/2000/svg">
<path fill-rule="evenodd" clip-rule="evenodd" d="M9.23421 7.47465C23.2131 2.982 38.2469 2.98305 52.2251 7.47767C55.7778 8.62006 57.3479 12.5535 56.0082 15.883L46.905 38.5052C46.872 38.587 46.8389 38.6703 46.8053 38.7544C46.4798 39.5707 46.117 40.4805 45.5634 41.1773C44.8428 42.0844 43.8685 42.5886 42.5408 42.7316C41.7551 42.8163 41.0496 42.2479 40.965 41.4622C40.8803 40.6765 41.4486 39.971 42.2343 39.8864C42.9166 39.8129 43.1462 39.6194 43.3228 39.3973C43.6035 39.0437 43.8125 38.5245 44.2254 37.4984L53.3533 14.8147C54.1304 12.8834 53.1779 10.7902 51.3491 10.2021C37.9404 5.89057 23.5192 5.88956 10.1098 10.1992C8.28091 10.787 7.32809 12.8801 8.10491 14.8114L17.2347 37.5091C17.6441 38.5268 17.8516 39.0429 18.1309 39.3953C18.3069 39.6172 18.5358 39.8106 19.2167 39.8845C20.0022 39.9698 20.57 40.676 20.4846 41.4615C20.3993 42.2472 19.6931 42.8149 18.9076 42.7296C17.5804 42.5853 16.6074 42.0802 15.8883 41.1731C15.3369 40.4775 14.9754 39.5699 14.651 38.7557C14.6169 38.6703 14.5833 38.5859 14.55 38.5029L5.44988 15.8794C4.11056 12.5497 5.68122 8.61654 9.23421 7.47465ZM23.0632 12.7853C25.4935 11.7785 28.0985 11.2604 30.7293 11.2604C33.36 11.2604 35.9649 11.7785 38.3953 12.7853C40.8258 13.792 43.0341 15.2676 44.8943 17.1277C45.4531 17.6865 45.4531 18.5925 44.8943 19.1513C44.3354 19.71 43.4295 19.71 42.8706 19.1513C41.2762 17.5568 39.3834 16.2921 37.3002 15.4291C35.2168 14.5663 32.9841 14.1221 30.7293 14.1221C28.4743 14.1221 26.2416 14.5663 24.1584 15.4291C22.075 16.2921 20.1822 17.5568 18.5878 19.1513C18.0289 19.71 17.123 19.71 16.5642 19.1513C16.0053 18.5925 16.0053 17.6865 16.5642 17.1277C18.4244 15.2676 20.6327 13.792 23.0632 12.7853ZM22.1578 19.8352C24.639 17.9791 27.6556 16.9785 30.7542 16.9839C33.8528 16.9893 36.8659 18.0004 39.3405 19.8651C39.9717 20.3408 40.0977 21.2379 39.6221 21.8691C39.1466 22.5003 38.2494 22.6263 37.6183 22.1507C35.6385 20.6589 33.228 19.85 30.7492 19.8457C28.2703 19.8414 25.8571 20.6418 23.8722 22.1267C23.2393 22.6001 22.3426 22.4709 21.8692 21.8381C21.3959 21.2053 21.5251 20.3086 22.1578 19.8352ZM23.5747 28.5224V31.1079C23.6442 31.0806 23.7152 31.0534 23.7878 31.0262C25.3683 30.4335 27.6845 29.8619 30.7293 29.8619C33.7739 29.8619 36.0901 30.4335 37.6707 31.0262C37.7432 31.0534 37.8142 31.0806 37.8837 31.1079V28.5224C37.5894 28.3676 37.1834 28.1763 36.6657 27.9821C35.3845 27.5016 33.408 27.0001 30.7293 27.0001C28.0504 27.0001 26.0739 27.5016 24.7927 27.9821C24.275 28.1763 23.869 28.3676 23.5747 28.5224ZM39.3146 27.7156L40.1731 26.5709C40.5334 26.8411 40.7455 27.2651 40.7455 27.7156V33.8525C40.7455 35.2649 40.3274 36.6459 39.5438 37.8211L38.6046 39.2299C38.1345 39.9351 37.8837 40.7635 37.8837 41.6111V47.0028C37.8837 48.755 37.2407 50.4463 36.0765 51.7559C35.0013 52.9656 33.6184 53.7181 32.1602 54.0137V54.187C32.1602 55.2878 33.3584 55.9699 34.3049 55.4079L37.3353 53.6086C40.2877 51.8556 44.1008 52.7954 45.9004 55.7199L46.2567 56.2988C46.6709 56.9719 46.461 57.8532 45.7879 58.2674C45.115 58.6815 44.2336 58.4718 43.8195 57.7987L43.4632 57.2197C42.4826 55.6263 40.4051 55.1142 38.7962 56.0693L35.766 57.8686C32.9118 59.5632 29.2984 57.5063 29.2984 54.187V54.0137C27.84 53.7181 26.4571 52.9656 25.3819 51.7559C24.2177 50.4463 23.5747 48.755 23.5747 47.0028V41.6111C23.5747 40.7635 23.3239 39.9351 22.8538 39.2299L21.9146 37.8211C21.131 36.6459 20.7129 35.2649 20.7129 33.8525V27.7156C20.7129 27.2651 20.925 26.8411 21.2853 26.5709L22.1438 27.7156C21.2853 26.5709 21.2853 26.5709 21.2853 26.5709L21.2901 26.5673L21.2962 26.5628L21.3112 26.5518C21.3228 26.5434 21.3371 26.5331 21.3544 26.5209C21.389 26.4966 21.4352 26.465 21.4929 26.427C21.6085 26.3512 21.7705 26.2503 21.979 26.133C22.3959 25.8985 22.9989 25.5984 23.7878 25.3027C25.3683 24.71 27.6845 24.1383 30.7293 24.1383C33.7739 24.1383 36.0901 24.71 37.6707 25.3027C38.4595 25.5984 39.0625 25.8985 39.4794 26.133C39.6879 26.2503 39.8499 26.3512 39.9655 26.427C40.0232 26.465 40.0694 26.4966 40.104 26.5209C40.1213 26.5331 40.1356 26.5434 40.1472 26.5518L40.1623 26.5628L40.1683 26.5673L40.1708 26.5691L40.1731 26.5709C40.1731 26.5709 40.1731 26.5709 39.3146 27.7156ZM37.8664 34.237C37.5735 34.0837 37.1733 33.896 36.6657 33.7057C35.3845 33.2252 33.408 32.7237 30.7293 32.7237C28.0504 32.7237 26.0739 33.2252 24.7927 33.7057C24.2851 33.896 23.8849 34.0837 23.592 34.237C23.656 34.9488 23.8971 35.6357 24.2957 36.2336L25.235 37.6425C26.0185 38.8177 26.4365 40.1986 26.4365 41.6111V47.0028C26.4365 48.054 26.8224 49.0688 27.5208 49.8547C29.2284 51.7756 32.23 51.7756 33.9376 49.8547C34.636 49.0688 35.0219 48.054 35.0219 47.0028V41.6111C35.0219 40.1986 35.4399 38.8177 36.2235 37.6425L37.1627 36.2336C37.5613 35.6357 37.8024 34.9488 37.8664 34.237ZM30.7293 39.8781C31.5194 39.8781 32.1602 40.5187 32.1602 41.309V47.0325C32.1602 47.8228 31.5194 48.4634 30.7293 48.4634C29.939 48.4634 29.2984 47.8228 29.2984 47.0325V41.309C29.2984 40.5187 29.939 39.8781 30.7293 39.8781Z" fill="#5672FF"/>
</svg>
