<svg width="64" height="63" viewBox="0 0 64 63" fill="none" xmlns="http://www.w3.org/2000/svg">
<path fill-rule="evenodd" clip-rule="evenodd" d="M40.0365 29.8868C41.7051 29.8868 43.3348 29.4331 44.7128 28.5852C46.1119 29.4316 47.7631 29.8752 49.448 29.8577L54.8002 28.1023C56.3084 26.9816 57.3437 25.4281 57.7331 23.7019C58.1224 21.9755 57.8419 20.1811 56.9387 18.6188C56.0355 17.0565 54.5643 15.8212 52.7715 15.1196C52.3621 13.4484 51.331 11.9535 49.8491 10.883L44.6246 9.23513H44.0364C42.8743 7.70691 41.1297 6.61683 39.1342 6.1721L27.9332 5.60455C26.0713 5.74398 24.3156 6.44391 22.9487 7.59168C22.3029 7.45443 21.6417 7.3833 20.9782 7.37963C19.3714 7.38261 17.7999 7.80467 16.4535 8.59487C15.107 9.38507 14.0431 10.5096 13.3902 11.8329L9.13423 14.55C8.07524 15.8432 7.50514 17.409 7.50794 19.0162C7.49747 19.6884 7.59656 20.3581 7.80205 21.0043C6.68548 22.3101 6.08507 23.9149 6.09622 25.5635C6.09356 27.4755 6.90401 29.3159 8.36086 30.7059C8.47843 32.0748 9.00916 33.3887 9.89562 34.5053C10.7821 35.6219 11.9905 36.4989 13.3902 37.041C15.0028 37.9522 16.3684 39.1778 17.3863 40.6272C18.4043 42.0769 19.0488 43.7137 19.2724 45.4173H30.2608V37.4651C30.2588 36.0532 30.6959 34.6691 31.5225 33.4696C32.349 32.2702 33.5319 31.3036 34.9372 30.6793C35.7274 30.4068 35.9219 30.04 36.16 29.5906C36.3188 29.2911 36.4971 28.9548 36.8839 28.5852C37.2201 28.792 37.4806 28.9755 37.7063 29.1345C38.4066 29.6274 38.7749 29.8868 40.0365 29.8868ZM46.4371 26.2484C47.2045 26.6634 48.0892 26.9134 49.0138 26.9625L53.4107 25.5204C54.2136 24.8217 54.7235 23.9553 54.9253 23.0603C55.1519 22.0556 54.9956 21 54.4469 20.0509C53.893 19.0927 52.9515 18.2724 51.7227 17.7916L50.3313 17.2472L49.9759 15.796C49.7677 14.9459 49.268 14.1246 48.491 13.4642L44.1815 12.1049H42.6092L41.7453 10.9688C41.0606 10.0684 40.0045 9.35809 38.7226 9.02473L27.9849 8.48066C26.7592 8.60431 25.6449 9.07765 24.7996 9.78749L23.7241 10.6905L22.3505 10.3986C21.9005 10.303 21.4382 10.2527 20.973 10.2495C19.8647 10.2533 18.8005 10.5463 17.9103 11.0688C17.0189 11.5918 16.3606 12.3088 15.9712 13.098L15.6159 13.8183L11.1179 16.69C10.6264 17.4104 10.3848 18.2114 10.3862 19.0028L10.3862 19.0277L10.3858 19.0527C10.3802 19.4109 10.4328 19.7711 10.5449 20.1236L11.0302 21.6493L9.98964 22.8664C9.30241 23.6701 8.96812 24.6107 8.97436 25.5356L8.97444 25.5473L8.97442 25.5591C8.97293 26.6372 9.42719 27.7367 10.3477 28.615L11.1354 29.3665L11.2285 30.4512C11.2958 31.2345 11.6011 32.0161 12.1498 32.7073C12.7011 33.4018 13.4811 33.9812 14.4299 34.3487L14.6244 34.4241L14.8061 34.5267C15.0165 34.6456 15.2237 34.7691 15.4277 34.897L15.4187 34.9036C19.3312 37.2907 20.9914 40.7647 21.555 42.5411H22.4357V32.0448L19.2649 29.2263L17.1127 31.3787C16.5507 31.9406 15.6395 31.9406 15.0775 31.3787C14.5156 30.8167 14.5156 29.9055 15.0775 29.3435L17.6561 26.7648L16.8825 22.5095L13.3769 20.7568C12.666 20.4013 12.3779 19.5368 12.7334 18.8259C13.0888 18.1151 13.9533 17.8269 14.6642 18.1823L18.0847 19.8927L22.2745 17.2265L20.9714 13.7512C20.6922 13.007 21.0694 12.1775 21.8136 11.8983C22.5577 11.6193 23.3872 11.9963 23.6663 12.7405L25.0667 16.4748H26.6159L27.3559 14.9947L26.1825 12.2568C25.8694 11.5263 26.2079 10.6803 26.9384 10.3672C27.6689 10.0541 28.5149 10.3925 28.8281 11.1231L29.8385 13.4806L33.8507 14.2101L33.8672 14.1967L36.4604 12.1221C37.0811 11.6256 37.9867 11.7262 38.4832 12.3469C38.9797 12.9675 38.8791 13.8731 38.2584 14.3696L36.525 15.7564L38.4463 18.2268L39.1842 16.7514C39.4278 16.2639 39.9262 15.9559 40.4713 15.9559H43.5831C44.3779 15.9559 45.0222 16.6002 45.0222 17.395C45.0222 18.1898 44.3779 18.8341 43.5831 18.8341H41.3607L40.9748 19.6058L43.3767 20.1395C43.4916 20.1652 43.6028 20.2046 43.7081 20.2573L45.7826 21.2946C46.4935 21.6499 46.7816 22.5143 46.4263 23.2253C46.0709 23.9362 45.2064 24.2243 44.4955 23.8688L42.5795 22.9108L38.0845 21.9119C37.7577 21.8393 37.4663 21.6549 37.2608 21.3907L33.9678 17.1568L29.9768 16.4312C29.9189 16.4789 29.8567 16.5223 29.7907 16.5612L28.9443 18.2536V19.0677H30.6172C30.8405 19.0677 31.0608 19.1198 31.2607 19.2197L35.4098 21.2943C36.1207 21.6497 36.4088 22.5141 36.0534 23.225C35.6979 23.9359 34.8335 24.224 34.1227 23.8686L30.2774 21.9459H28.9443V24.1377C28.9443 24.9323 28.3001 25.5768 27.5052 25.5768C26.7104 25.5768 26.0661 24.9323 26.0661 24.1377V20.5179V20.5068V20.4959V19.3531H24.2939L19.7587 22.2391L20.5341 26.5037L24.8309 30.3229C25.138 30.5961 25.3139 30.9875 25.3139 31.3985V42.5411H27.3828V37.4093C27.3828 33.5211 29.5547 31.1346 30.7409 30.0048C31.6897 29.1009 33.115 28.3388 33.7091 28.0709C33.8271 27.8067 34.2296 27.1209 34.8952 26.4913C35.5608 25.8617 36.2518 25.2059 36.5142 24.9567C38.2957 25.9748 39.6791 26.9972 39.6791 26.9972C39.6791 26.9972 41.5229 26.896 42.3606 26.5588C43.0306 26.289 44.1987 25.5394 44.6991 25.1983L46.4371 26.2484Z" fill="#5672FF"/>
<path d="M19.0481 51.656H30.561V48.7778H19.0481V51.656Z" fill="#5672FF"/>
<path d="M30.561 57.4124H19.0481V54.5342H30.561V57.4124Z" fill="#5672FF"/>
</svg>
