<svg width="63" height="63" viewBox="0 0 63 63" fill="none" xmlns="http://www.w3.org/2000/svg">
<path d="M52.2519 41.8859C53.8941 38.7176 54.8219 35.1193 54.8219 31.3045C54.8219 18.588 44.5132 8.27928 31.7967 8.27928C19.0801 8.27928 8.77146 18.588 8.77146 31.3045C8.77146 35.1195 9.69924 38.7176 11.3415 41.8859L9.82248 45.0267C7.33257 41.0479 5.89331 36.3443 5.89331 31.3045C5.89331 16.9985 17.4907 5.40112 31.7967 5.40112C46.1027 5.40112 57.7001 16.9985 57.7001 31.3045C57.7001 36.3443 56.2608 41.0479 53.771 45.0267L52.2519 41.8859Z" fill="#5672FF"/>
<path fill-rule="evenodd" clip-rule="evenodd" d="M31.7967 21.231C27.8228 21.231 24.6013 24.4525 24.6013 28.4264C24.6013 32.4002 27.8228 35.6217 31.7967 35.6217C35.7706 35.6217 38.9921 32.4002 38.9921 28.4264C38.9921 24.4525 35.7706 21.231 31.7967 21.231ZM27.4795 28.4264C27.4795 26.0419 29.4123 24.1091 31.7967 24.1091C34.1811 24.1091 36.1139 26.0419 36.1139 28.4264C36.1139 30.8108 34.1811 32.7436 31.7967 32.7436C29.4123 32.7436 27.4795 30.8108 27.4795 28.4264Z" fill="#5672FF"/>
<path fill-rule="evenodd" clip-rule="evenodd" d="M17.4898 33.1078C17.5494 32.9666 17.6141 32.8289 17.6839 32.6945C17.5016 31.7798 17.4059 30.8338 17.4059 29.8654C17.4059 21.9177 23.8489 15.4747 31.7967 15.4747C39.7444 15.4747 46.1874 21.9177 46.1874 29.8654C46.1874 30.8336 46.0917 31.7797 45.9095 32.6942C45.9792 32.8288 46.0441 32.9666 46.1037 33.1078L52.9063 49.2121C54.5093 53.0069 51.7233 57.2082 47.6036 57.2082H42.6859C42.6236 57.2093 42.5612 57.2093 42.4992 57.2082H21.0943C21.0321 57.2093 20.9698 57.2093 20.9075 57.2082H15.9898C11.8702 57.2082 9.08415 53.0069 10.6872 49.2121L17.4898 33.1078ZM31.7967 18.3528C25.4384 18.3528 20.2841 23.5072 20.2841 29.8654C20.2841 29.9654 20.2853 30.0652 20.2879 30.1646C20.9555 29.8418 21.6895 29.6461 22.4536 29.6014C22.5018 30.6073 22.7089 31.5715 23.0504 32.4696H22.7924C21.6356 32.4696 20.5912 33.1621 20.141 34.2277L13.3385 50.332C12.5369 52.2294 13.93 54.33 15.9898 54.33H16.4529C15.8557 53.07 15.7816 51.5694 16.3741 50.1869L19.944 41.8578C21.1912 38.9477 24.0527 37.0608 27.2188 37.0608H36.3744C39.5406 37.0608 42.4021 38.9477 43.6493 41.8578L47.2191 50.1869C47.8116 51.5694 47.7376 53.07 47.1404 54.33H47.6036C49.6635 54.33 51.0565 52.2294 50.255 50.332L43.4525 34.2277C43.0023 33.1621 41.9578 32.4696 40.8011 32.4696H40.5429C40.8844 31.5715 41.0915 30.6073 41.1399 29.6014C41.904 29.6461 42.6378 29.8418 43.3055 30.1646C43.308 30.0652 43.3093 29.9654 43.3093 29.8654C43.3093 23.5072 38.1549 18.3528 31.7967 18.3528ZM43.4399 54.1552C43.1749 54.2689 42.8993 54.3254 42.627 54.33H42.5533C42.0403 54.3212 41.5441 54.1288 41.1583 53.7881C41.1063 53.7422 41.0517 53.7006 40.995 53.6633L38.1696 46.5999C37.8745 45.8619 37.0369 45.503 36.299 45.7982C35.561 46.0933 35.2021 46.9309 35.4973 47.6688L38.1617 54.3297H25.4316L28.0961 47.6688C28.3912 46.9309 28.0323 46.0933 27.2944 45.7982C26.5564 45.503 25.7189 45.8619 25.4237 46.5999L22.5985 53.6631C22.5417 53.7004 22.4871 53.742 22.435 53.7879C22.0492 54.1288 21.5529 54.3212 21.0399 54.33H20.9663C20.6942 54.3254 20.4185 54.2689 20.1532 54.1552C19.0575 53.6856 18.55 52.4165 19.0195 51.3208L22.5893 42.9915C23.3831 41.1397 25.204 39.939 27.2188 39.939H36.3744C38.3892 39.939 40.2102 41.1397 41.0039 42.9915L44.5738 51.3208C45.0434 52.4165 44.5358 53.6856 43.4399 54.1552Z" fill="#5672FF"/>
<path d="M25.1427 14.5844C27.2439 13.7314 29.4926 13.3005 31.7603 13.3165C34.028 13.3325 36.2704 13.7948 38.3595 14.6774L39.4795 12.0262C37.0423 10.9965 34.4262 10.457 31.7806 10.4384C29.1348 10.4198 26.5114 10.9225 24.0599 11.9177L25.1427 14.5844Z" fill="#5672FF"/>
</svg>
