<svg width="64" height="63" viewBox="0 0 64 63" fill="none" xmlns="http://www.w3.org/2000/svg">
<path d="M31.2866 35.2607L33.4268 28.1267L35.567 35.2607L33.4268 38.1143L31.2866 35.2607Z" fill="#5672FF"/>
<path fill-rule="evenodd" clip-rule="evenodd" d="M54.1263 24.3497C56.1836 23.7323 57.6824 21.8241 57.6824 19.5659V11.0051C57.6824 8.24709 55.4466 6.01129 52.6886 6.01129C49.9306 6.01129 47.6948 8.24709 47.6948 11.0051V19.5659C47.6948 21.8319 49.2041 23.7454 51.2723 24.356C51.2841 25.9608 51.3046 27.4939 51.3242 28.9584V28.9599C51.3938 34.1692 51.4519 38.5108 51.0721 42.1202C50.5345 47.2296 49.1602 50.347 46.103 52.1489C41.9946 54.5702 35.7762 55.4085 30.5426 54.7496C27.9364 54.4215 25.7084 53.7372 24.1767 52.8009C23.5579 52.4227 23.0854 52.0269 22.7421 51.6188C25.3444 51.4723 27.8854 51.0016 29.9519 50.1606C32.4874 49.1288 34.7859 47.3089 34.8522 44.434C39.6931 43.7423 43.4144 39.5793 43.4144 34.5473C43.4144 29.5157 39.6938 25.3531 34.8536 24.6609V16.1731H34.8495C34.8522 16.1152 34.8536 16.0571 34.8536 15.9989C34.8536 12.0589 28.4656 8.86489 20.5856 8.86489C12.7057 8.86489 6.31763 12.0589 6.31763 15.9989C6.31763 16.0571 6.31903 16.1152 6.32179 16.1731H6.31763V44.306C6.31763 47.1382 8.69358 48.9487 11.2109 49.9923C13.5519 50.9629 16.5118 51.504 19.4871 51.6367C20.0404 53.1536 21.2412 54.351 22.6884 55.2356C24.6845 56.4557 27.346 57.2233 30.1861 57.5809C35.8454 58.2934 42.7477 57.4386 47.5519 54.6073C51.7826 52.1138 53.339 47.8459 53.91 42.4187C54.3083 38.6329 54.247 34.0261 54.1762 28.7171C54.1574 27.3099 54.138 25.8534 54.1263 24.3497ZM52.6886 8.86489C53.8706 8.86489 54.8288 9.82309 54.8288 11.0051V19.5659C54.8288 20.7479 53.8706 21.7061 52.6886 21.7061C51.5067 21.7061 50.5484 20.7479 50.5484 19.5659V11.0051C50.5484 9.82309 51.5067 8.86489 52.6886 8.86489ZM32 15.9989C32 16.3058 31.6771 17.3518 29.3984 18.4911C27.2905 19.5451 24.1787 20.2793 20.5856 20.2793C16.9925 20.2793 13.8808 19.5451 11.7728 18.4911C9.49414 17.3518 9.17123 16.3058 9.17123 15.9989C9.17123 15.692 9.49414 14.646 11.7728 13.5067C13.8808 12.4527 16.9925 11.7185 20.5856 11.7185C24.1787 11.7185 27.2905 12.4527 29.3984 13.5067C31.6771 14.646 32 15.692 32 15.9989ZM32 20.28C29.3968 22.0124 25.253 23.1329 20.5856 23.1329C20.1485 23.1329 19.7157 23.1231 19.2885 23.1038V48.7696C19.7234 48.7938 20.1619 48.8086 20.6019 48.8136C23.6946 48.8488 26.7008 48.403 28.8761 47.5176C31.0359 46.6386 31.9334 45.5436 31.9965 44.4332C27.158 43.7393 23.4392 39.5776 23.4392 34.5473C23.4392 29.5157 27.1599 25.3531 32 24.6609V20.28ZM40.5608 34.5473C40.5608 38.4873 37.3668 41.6813 33.4268 41.6813C29.4869 41.6813 26.2928 38.4873 26.2928 34.5473C26.2928 30.6073 29.4869 27.4133 33.4268 27.4133C37.3668 27.4133 40.5608 30.6073 40.5608 34.5473Z" fill="#5672FF"/>
</svg>
