<svg width="64" height="63" viewBox="0 0 64 63" fill="none" xmlns="http://www.w3.org/2000/svg">
<path d="M36.3172 15.8816V13.0034H33.439V10.1252H30.5608V13.0034H27.6826V15.8816H30.5608V18.7598H33.439V15.8816H36.3172Z" fill="#5672FF"/>
<path fill-rule="evenodd" clip-rule="evenodd" d="M42.5334 21.302L45.3803 13.2357C46.1523 11.0488 45.0524 8.5733 42.7495 7.84307C40.0729 6.99436 35.6972 5.80791 32.0002 5.80791C28.3031 5.80791 23.9274 6.99436 21.2508 7.84307C18.9479 8.5733 17.848 11.0488 18.62 13.2357L21.4669 21.302C20.8369 22.7264 20.4873 24.3016 20.4873 25.9553C20.4873 32.3137 25.6418 37.4681 32.0002 37.4681C38.3585 37.4681 43.513 32.3137 43.513 25.9553C43.513 24.3016 43.1634 22.7264 42.5334 21.302ZM32.0002 8.68611C28.7774 8.68611 24.7629 9.74883 22.1209 10.5866C21.4592 10.7964 21.0709 11.5321 21.3341 12.2778L24.2466 20.5299C29.4089 18.8893 34.5914 18.8893 39.7537 20.5299L42.6662 12.2778C42.9294 11.5321 42.5411 10.7964 41.8794 10.5866C39.2374 9.74883 35.2229 8.68611 32.0002 8.68611ZM40.356 23.7695L40.3541 23.769C40.2781 23.7539 40.203 23.7326 40.1295 23.705C34.6989 21.6685 29.3014 21.6685 23.8708 23.705C23.7967 23.7328 23.721 23.7544 23.6443 23.7695C23.4624 24.4669 23.3655 25.1992 23.3655 25.9553C23.3655 30.7241 27.2314 34.5899 32.0002 34.5899C36.7689 34.5899 40.6348 30.7241 40.6348 25.9553C40.6348 25.1992 40.5379 24.4669 40.356 23.7695Z" fill="#5672FF"/>
<path d="M46.391 46.1027H49.2693V48.9809H46.391V51.8591H43.5128V48.9809H40.6346V46.1027H43.5128V43.2245H46.391V46.1027Z" fill="#5672FF"/>
<path fill-rule="evenodd" clip-rule="evenodd" d="M21.7516 37.4681C21.7516 37.4681 6.09619 42.3513 6.09619 48.2137V57.6158H57.9038V48.2137C57.9038 42.3513 42.2484 37.4681 42.2484 37.4681L33.6538 43.5024C32.6614 44.1992 31.3386 44.1992 30.3462 43.5024L21.7516 37.4681ZM42.7084 40.6619L35.3078 45.8579C33.3228 47.2515 30.6772 47.2515 28.6922 45.8579L21.2917 40.6619C21.0027 40.7645 20.6741 40.8837 20.3145 41.0182C18.9043 41.5461 17.047 42.3005 15.2093 43.2177C13.3442 44.1487 11.6361 45.1805 10.436 46.2291C9.13977 47.3613 8.97439 48.0348 8.97439 48.2137V54.7376H55.0256V48.2137C55.0256 48.0348 54.8603 47.3613 53.5641 46.2291C52.3639 45.1805 50.6558 44.1487 48.7907 43.2177C46.953 42.3005 45.0957 41.5461 43.6855 41.0182C43.3259 40.8837 42.9973 40.7645 42.7084 40.6619Z" fill="#5672FF"/>
</svg>
