<svg width="63" height="63" viewBox="0 0 63 63" fill="none" xmlns="http://www.w3.org/2000/svg">
<path d="M13.3555 13.2603C13.9954 12.9404 14.7736 13.1997 15.0935 13.8396C15.4737 14.6001 15.7193 15.4722 15.6017 16.4124C15.4823 17.3665 15.009 18.2306 14.2403 18.9998L13.0183 20.2218C12.7688 20.4713 12.3905 20.8159 12.0096 21.1627L12.0084 21.1638C11.8833 21.2777 11.7577 21.3921 11.6366 21.5032C11.1069 21.989 10.6481 22.425 10.4003 22.7143C9.15818 24.1643 8.33002 25.9578 8.02297 27.8732C7.71594 29.7885 7.94501 31.7315 8.67233 33.4621C9.39929 35.1918 10.5903 36.6309 12.0888 37.613C12.5038 37.8851 12.938 38.1193 13.387 38.3143C13.5963 38.353 13.7899 38.43 13.9544 38.5373C14.9641 38.8933 16.0358 39.0587 17.1221 39.0205C18.9107 38.9576 20.6719 38.3447 22.1862 37.2423C23.7012 36.1395 24.9001 34.5965 25.6262 32.7986C25.8942 32.1352 26.6492 31.8146 27.3125 32.0826C27.9759 32.3505 28.2964 33.1055 28.0285 33.7688C27.1255 36.0045 25.628 37.9414 23.7108 39.3369C21.7929 40.7331 19.5355 41.5281 17.2132 41.6097C16.4029 41.6382 15.5985 41.5792 14.8118 41.4365L15.9372 48.5782C16.0374 49.2136 15.4892 49.7978 14.7128 49.8832C13.9365 49.9687 13.226 49.5228 13.1259 48.8874L11.7928 40.4276C11.4077 40.2344 11.0323 40.0183 10.6685 39.7798C8.72415 38.5054 7.20376 36.6546 6.28392 34.4659C5.36444 32.278 5.08315 29.8443 5.46486 27.4632C5.84656 25.082 6.87626 22.8459 8.43275 21.0289C8.79985 20.6003 9.37845 20.0589 9.88528 19.594C10.0341 19.4574 10.1777 19.3267 10.3135 19.203C10.6761 18.8727 10.9833 18.5929 11.1863 18.3899L12.4077 17.1685C12.8598 16.716 12.9975 16.3582 13.031 16.0906C13.0663 15.8091 13.0068 15.4595 12.7763 14.9983C12.4563 14.3584 12.7157 13.5803 13.3555 13.2603Z" fill="#5672FF"/>
<path d="M50.614 40.4276C50.9991 40.2344 51.3745 40.0183 51.7382 39.7798C53.6826 38.5054 55.203 36.6546 56.1229 34.4659C57.0423 32.278 57.3237 29.8443 56.9419 27.4632C56.5602 25.082 55.5306 22.8459 53.9741 21.0289C53.607 20.6003 53.0283 20.0589 52.5216 19.594C52.3727 19.4574 52.2291 19.3267 52.0933 19.203C51.7307 18.8727 51.4235 18.5929 51.2205 18.3899L49.9991 17.1685C49.5471 16.716 49.4093 16.3582 49.3757 16.0906C49.3405 15.8091 49.3999 15.4595 49.6305 14.9983C49.9505 14.3584 49.6911 13.5803 49.0512 13.2603C48.4113 12.9404 47.6333 13.1997 47.3133 13.8396C46.933 14.6001 46.6874 15.4722 46.805 16.4124C46.9245 17.3665 47.3978 18.2306 48.1665 18.9998L49.3885 20.2218C49.6379 20.4713 50.0162 20.8156 50.3969 21.1624C50.5224 21.2767 50.6487 21.3917 50.7702 21.5032C51.2999 21.989 51.7587 22.425 52.0065 22.7143C53.2487 24.1643 54.0768 25.9578 54.3838 27.8732C54.6908 29.7885 54.4618 31.7315 53.7344 33.4621C53.0075 35.1918 51.8165 36.6309 50.318 37.613C49.9031 37.8851 49.4687 38.1193 49.0198 38.3143C48.8104 38.353 48.6169 38.43 48.4524 38.5373C47.4426 38.8933 46.3709 39.0587 45.2848 39.0205C43.4961 38.9576 41.735 38.3447 40.2207 37.2423C38.7055 36.1395 37.5068 34.5965 36.7806 32.7986C36.5127 32.1352 35.7577 31.8146 35.0944 32.0826C34.431 32.3505 34.1104 33.1055 34.3783 33.7688C35.2813 36.0045 36.7789 37.9414 38.6961 39.3369C40.614 40.7331 42.8713 41.5281 45.1937 41.6097C46.0038 41.6382 46.8084 41.5792 47.595 41.4365L46.4697 48.5782C46.3695 49.2136 46.9176 49.7978 47.6939 49.8832C48.4703 49.9687 49.1808 49.5228 49.2809 48.8874L50.614 40.4276Z" fill="#5672FF"/>
<path d="M16.9533 32.9228C16.9533 34.3534 15.7936 35.5132 14.363 35.5132C12.9323 35.5132 11.7726 34.3534 11.7726 32.9228C11.7726 31.4922 12.9323 30.3324 14.363 30.3324C15.7936 30.3324 16.9533 31.4922 16.9533 32.9228Z" fill="#5672FF"/>
<path d="M48.0429 35.5132C49.4736 35.5132 50.6333 34.3534 50.6333 32.9228C50.6333 31.4922 49.4736 30.3324 48.0429 30.3324C46.6124 30.3324 45.4525 31.4922 45.4525 32.9228C45.4525 34.3534 46.6124 35.5132 48.0429 35.5132Z" fill="#5672FF"/>
</svg>
