<svg width="63" height="63" viewBox="0 0 63 63" fill="none" xmlns="http://www.w3.org/2000/svg">
<path fill-rule="evenodd" clip-rule="evenodd" d="M26.0227 6.01129C26.738 6.01129 27.3179 6.59118 27.3179 7.30649V18.1125C27.3179 19.83 26.6355 21.4772 25.421 22.6918L24.7685 23.3444C23.6115 24.5013 23.6115 26.3772 24.7685 27.5341C25.6702 28.4358 27.0477 28.6594 28.1884 28.0891L28.5023 27.9321C30.2027 27.082 32.2043 27.082 33.9046 27.9321L34.2185 28.0891C35.3592 28.6594 36.7367 28.4358 37.6384 27.5341C38.7954 26.3772 38.7954 24.5013 37.6384 23.3444L36.9859 22.6918C35.7714 21.4772 35.089 19.83 35.089 18.1125V7.30649C35.089 6.59118 35.6689 6.01129 36.3842 6.01129C37.0996 6.01129 37.6794 6.59118 37.6794 7.30649V9.51292C47.4046 12.3192 54.517 21.2866 54.517 31.9152C54.517 42.5439 47.4046 51.5113 37.6794 54.3176V56.524C37.6794 57.2393 37.0996 57.8192 36.3842 57.8192C35.6689 57.8192 35.089 57.2393 35.089 56.524V45.718C35.089 44.0005 35.7714 42.3532 36.9859 41.1387L37.6384 40.4861C38.7954 39.3292 38.7954 37.4533 37.6384 36.2964C36.7367 35.3947 35.3592 35.1711 34.2185 35.7414L33.9046 35.8984C32.2043 36.7485 30.2027 36.7485 28.5023 35.8984L28.1884 35.7414C27.0477 35.1711 25.6702 35.3947 24.7685 36.2964C23.6115 37.4533 23.6115 39.3292 24.7685 40.4861L25.421 41.1387C26.6355 42.3532 27.3179 44.0005 27.3179 45.718V56.524C27.3179 57.2393 26.738 57.8192 26.0227 57.8192C25.3073 57.8192 24.7275 57.2393 24.7275 56.524V54.3176C15.0023 51.5113 7.88989 42.5439 7.88989 31.9152C7.88989 21.2866 15.0023 12.3192 24.7275 9.51292V7.30649C24.7275 6.59118 25.3073 6.01129 26.0227 6.01129ZM24.7275 12.2241C16.4539 14.9435 10.4803 22.7318 10.4803 31.9152C10.4803 41.0988 16.4539 48.8871 24.7275 51.6065V45.718C24.7275 44.6874 24.3181 43.6991 23.5894 42.9704L22.9367 42.3179C20.7682 40.1492 20.7682 36.6333 22.9367 34.4646C24.627 32.7745 27.2089 32.3555 29.3468 33.4244L29.6607 33.5814C30.6319 34.067 31.775 34.067 32.7462 33.5814L33.0601 33.4244C35.198 32.3555 37.78 32.7745 39.4702 34.4646C41.6387 36.6333 41.6387 40.1492 39.4702 42.3179L38.8175 42.9704C38.0889 43.6991 37.6794 44.6874 37.6794 45.718V51.6065C45.953 48.8871 51.9266 41.0988 51.9266 31.9152C51.9266 22.7318 45.953 14.9435 37.6794 12.2241V18.1125C37.6794 19.143 38.0889 20.1314 38.8175 20.8601L39.4702 21.5126C41.6387 23.6813 41.6387 27.1972 39.4702 29.3659C37.78 31.056 35.198 31.475 33.0601 30.4061L32.7462 30.2491C31.775 29.7635 30.6319 29.7635 29.6607 30.2491L29.3468 30.4061C27.2089 31.475 24.627 31.056 22.9367 29.3659C20.7682 27.1972 20.7682 23.6813 22.9367 21.5126L23.5894 20.8601C24.3181 20.1314 24.7275 19.143 24.7275 18.1125V12.2241Z" fill="#5672FF"/>
</svg>
